<svg xmlns="http://www.w3.org/2000/svg" viewBox="63 372 870 285" role="img" aria-label="Etuos">
  <g fill="#0f172a">
    <path d="M199.7,377.8v38.3h-90v29.5h75.2v35.8h-75.2v29.5h90v38.3H68.3v-171.5h131.4Z"/>
    <path d="M386.5,416.2h-60.8v133.2h-41.9v-133.2h-60.8v-38.3h163.4v38.3Z"/>
    <path d="M571.6,461.3c0,56.7-35.8,91-83.7,91s-81.7-34.3-81.7-91v-83.5h41.4v83.5c0,33,14.1,52.7,40.3,52.7s41.9-19.7,41.9-52.7v-83.5h41.9v83.5Z"/>
    <path d="M767.3,463.6c0,48.9-39.8,88.8-88.5,88.8s-88.5-39.8-88.5-88.8,39.3-88.8,88.5-88.8,88.5,40.1,88.5,88.8ZM628.1,463.6c0,28,22.7,50.4,50.7,50.4s50.2-22.4,50.2-50.4-22.7-50.2-50.2-50.2-50.7,22.4-50.7,50.2Z"/>
    <path d="M927.4,432.1h-41.1c0-8.6-10.1-20.2-27.7-20.2s-27.5,5.5-27.5,15.4,11.3,11.6,35.6,17.9c27,7.1,65.1,16.1,65.1,54s-28.7,53.2-68.8,53.2-76.2-36.3-76.2-63h41.1s3.3,27.2,37.3,27.2,25.2-7.8,25.2-15.1c0-10.8-14.4-14.6-30.3-18.4-25.7-6.1-70.9-15.6-70.9-53.7s30.8-54.5,69.9-54.5,68.3,30.5,68.3,57.2Z"/>
  </g>
  <rect fill="#a3e635" x="161.1" y="629.6" width="677.8" height="22"/>
</svg>
